<svg width="16" height="16" viewBox="0 0 16 16" fill="none" xmlns="http://www.w3.org/2000/svg">
<path fill-rule="evenodd" clip-rule="evenodd" d="M2.3103 13.6905C3.28661 14.6668 4.85795 14.6668 8.00065 14.6668C11.1433 14.6668 12.7147 14.6668 13.691 13.6905C14.6673 12.7142 14.6673 11.1429 14.6673 8.00016C14.6673 4.85747 14.6673 3.28612 13.691 2.30981C12.7147 1.3335 11.1433 1.3335 8.00065 1.3335C4.85795 1.3335 3.28661 1.3335 2.3103 2.30981C1.33398 3.28612 1.33398 4.85747 1.33398 8.00016C1.33398 11.1429 1.33398 12.7142 2.3103 13.6905ZM12.5007 10.6668C12.5007 10.943 12.2768 11.1668 12.0007 11.1668H4.00065C3.72451 11.1668 3.50065 10.943 3.50065 10.6668C3.50065 10.3907 3.72451 10.1668 4.00065 10.1668H12.0007C12.2768 10.1668 12.5007 10.3907 12.5007 10.6668ZM12.0007 8.50016C12.2768 8.50016 12.5007 8.27631 12.5007 8.00016C12.5007 7.72402 12.2768 7.50016 12.0007 7.50016H4.00065C3.72451 7.50016 3.50065 7.72402 3.50065 8.00016C3.50065 8.27631 3.72451 8.50016 4.00065 8.50016H12.0007ZM12.5007 5.3335C12.5007 5.60964 12.2768 5.8335 12.0007 5.8335H4.00065C3.72451 5.8335 3.50065 5.60964 3.50065 5.3335C3.50065 5.05735 3.72451 4.8335 4.00065 4.8335H12.0007C12.2768 4.8335 12.5007 5.05735 12.5007 5.3335Z" fill="#566577"/>
</svg>
