<svg width="17" height="16" viewBox="0 0 17 16" fill="none" xmlns="http://www.w3.org/2000/svg">
<path d="M6.66667 8.00016C6.66667 8.36835 6.36819 8.66683 6 8.66683C5.63181 8.66683 5.33333 8.36835 5.33333 8.00016C5.33333 7.63197 5.63181 7.3335 6 7.3335C6.36819 7.3335 6.66667 7.63197 6.66667 8.00016Z" fill="#1C00C2"/>
<path d="M9.33333 8.00016C9.33333 8.36835 9.03486 8.66683 8.66667 8.66683C8.29848 8.66683 8 8.36835 8 8.00016C8 7.63197 8.29848 7.3335 8.66667 7.3335C9.03486 7.3335 9.33333 7.63197 9.33333 8.00016Z" fill="#1C00C2"/>
<path d="M11.3333 8.66683C11.7015 8.66683 12 8.36835 12 8.00016C12 7.63197 11.7015 7.3335 11.3333 7.3335C10.9651 7.3335 10.6667 7.63197 10.6667 8.00016C10.6667 8.36835 10.9651 8.66683 11.3333 8.66683Z" fill="#1C00C2"/>
<path fill-rule="evenodd" clip-rule="evenodd" d="M8.70492 0.833496H8.62842C7.08949 0.833488 5.88346 0.833481 4.94247 0.959994C3.97931 1.08949 3.2193 1.35971 2.62276 1.95625C2.02622 2.55279 1.75599 3.31281 1.6265 4.27597C1.49999 5.21696 1.49999 6.42298 1.5 7.9619V8.03841C1.49999 9.57734 1.49999 10.7834 1.6265 11.7244C1.75599 12.6875 2.02622 13.4475 2.62276 14.0441C3.2193 14.6406 3.97931 14.9108 4.94247 15.0403C5.88346 15.1668 7.08949 15.1668 8.62842 15.1668H8.70492C10.2438 15.1668 11.4499 15.1668 12.3909 15.0403C13.354 14.9108 14.114 14.6406 14.7106 14.0441C15.3071 13.4475 15.5773 12.6875 15.7068 11.7244C15.8333 10.7834 15.8333 9.57734 15.8333 8.03841V7.96192C15.8333 6.42298 15.8333 5.21696 15.7068 4.27597C15.5773 3.31281 15.3071 2.55279 14.7106 1.95625C14.114 1.35971 13.354 1.08949 12.3909 0.959994C11.4499 0.833481 10.2438 0.833488 8.70492 0.833496ZM3.32986 2.66336C3.70964 2.28359 4.22345 2.06566 5.07572 1.95108C5.94237 1.83456 7.08118 1.8335 8.66667 1.8335C10.2522 1.8335 11.391 1.83456 12.2576 1.95108C13.1099 2.06566 13.6237 2.28359 14.0035 2.66336C14.3832 3.04313 14.6012 3.55695 14.7158 4.40921C14.8323 5.27587 14.8333 6.41468 14.8333 8.00016C14.8333 9.58565 14.8323 10.7245 14.7158 11.5911C14.6012 12.4434 14.3832 12.9572 14.0035 13.337C13.6237 13.7167 13.1099 13.9347 12.2576 14.0492C11.391 14.1658 10.2522 14.1668 8.66667 14.1668C7.08118 14.1668 5.94237 14.1658 5.07572 14.0492C4.22345 13.9347 3.70964 13.7167 3.32986 13.337C2.95009 12.9572 2.73217 12.4434 2.61758 11.5911C2.50106 10.7245 2.5 9.58565 2.5 8.00016C2.5 6.41468 2.50106 5.27587 2.61758 4.40921C2.73217 3.55695 2.95009 3.04313 3.32986 2.66336Z" fill="#1C00C2"/>
</svg>
