<svg width="17" height="16" viewBox="0 0 17 16" fill="none" xmlns="http://www.w3.org/2000/svg">
<path fill-rule="evenodd" clip-rule="evenodd" d="M1.33398 3C1.33398 2.72386 1.55784 2.5 1.83398 2.5H14.834C15.1101 2.5 15.334 2.72386 15.334 3C15.334 3.27614 15.1101 3.5 14.834 3.5H1.83398C1.55784 3.5 1.33398 3.27614 1.33398 3Z" fill="#566577"/>
<path fill-rule="evenodd" clip-rule="evenodd" d="M1.33398 8C1.33398 7.72386 1.55784 7.5 1.83398 7.5H14.834C15.1101 7.5 15.334 7.72386 15.334 8C15.334 8.27614 15.1101 8.5 14.834 8.5H1.83398C1.55784 8.5 1.33398 8.27614 1.33398 8Z" fill="#566577"/>
<path fill-rule="evenodd" clip-rule="evenodd" d="M1.33398 13C1.33398 12.7239 1.55784 12.5 1.83398 12.5H7.83398C8.11013 12.5 8.33398 12.7239 8.33398 13C8.33398 13.2761 8.11013 13.5 7.83398 13.5H1.83398C1.55784 13.5 1.33398 13.2761 1.33398 13Z" fill="#566577"/>
</svg>
