<svg width="16" height="16" viewBox="0 0 16 16" fill="none" xmlns="http://www.w3.org/2000/svg">
<path fill-rule="evenodd" clip-rule="evenodd" d="M1 3C1 2.72386 1.22386 2.5 1.5 2.5H14.5C14.7761 2.5 15 2.72386 15 3C15 3.27614 14.7761 3.5 14.5 3.5H1.5C1.22386 3.5 1 3.27614 1 3Z" fill="#566577"/>
<path fill-rule="evenodd" clip-rule="evenodd" d="M1 8C1 7.72386 1.22386 7.5 1.5 7.5H14.5C14.7761 7.5 15 7.72386 15 8C15 8.27614 14.7761 8.5 14.5 8.5H1.5C1.22386 8.5 1 8.27614 1 8Z" fill="#566577"/>
<path fill-rule="evenodd" clip-rule="evenodd" d="M1 13C1 12.7239 1.22386 12.5 1.5 12.5H14.5C14.7761 12.5 15 12.7239 15 13C15 13.2761 14.7761 13.5 14.5 13.5H1.5C1.22386 13.5 1 13.2761 1 13Z" fill="#566577"/>
</svg>
